<svg xmlns="http://www.w3.org/2000/svg" width="85.333" height="85.333" version="1.0" viewBox="0 0 64 64"><path d="M3.2 9.2c-1.7 1.7-1.7 43.9 0 45.6 1.7 1.7 55.9 1.7 57.6 0 1.7-1.7 1.7-43.9 0-45.6-1.7-1.7-55.9-1.7-57.6 0zM58 15.1v3.1l-8.2-.7c-4.6-.3-16.3-.8-26-1.1C7 15.9 6 15.8 6 14c0-1.9.9-2 26-2h26v3.1zm-8.2 6.4 8.2.7V52H6V19.9l17.8.5c9.7.3 21.4.8 26 1.1z"/><path d="M16.5 29c-.4.6-.1 1.7.5 2.5 1 1.2 1 1.8 0 3-1.9 2.2.3 4.4 2.5 2.5 1.2-1 1.8-1 3 0s1.9 1 2.7.2c.8-.8.8-1.5-.2-2.7-1-1.2-1-1.8 0-3 1.9-2.3-.3-4.4-2.5-2.5-1.2 1-1.9 1-2.7.2-1.5-1.5-2.5-1.5-3.3-.2zM38.5 29c-.4.6-.1 1.7.5 2.5 1 1.2 1 1.8 0 3-1.9 2.2.3 4.4 2.5 2.5 1.2-1 1.8-1 3 0 2.2 1.9 4.4-.3 2.5-2.5-1-1.2-1-1.8 0-3 1.9-2.3-.3-4.4-2.5-2.5-1.2 1-1.9 1-2.7.2-1.5-1.5-2.5-1.5-3.3-.2zM22.7 42.6c-1.3 1.3-.7 2.3 2.3 3.9 2.3 1.2 3.5 1.3 5 .5 1.4-.8 2.6-.8 4 0 1.5.8 2.7.7 5.1-.5 3.2-1.7 3.5-4.2.3-3.7-1 .2-2.7.3-3.6.3-2.8-.1-5.6-.1-7.5 0-1 .1-2.5-.1-3.4-.5-.8-.4-1.8-.3-2.2 0z"/></svg>