<svg xmlns="http://www.w3.org/2000/svg" width="170.667" height="170.667" version="1.0" viewBox="0 0 128 128"><path d="M8.7 8.7c-.4.3-.7 3-.7 6V20h112.1l-.3-5.8-.3-5.7-55.1-.3c-30.3-.1-55.4.1-55.7.5zm8.8 5.3c0 1.8-3.3 2.6-4.7 1.2-.6-.6-.7-1.5-.3-2.2 1-1.6 5-.8 5 1zm10 0c0 1.8-3.3 2.6-4.7 1.2-.6-.6-.7-1.5-.3-2.2 1-1.6 5-.8 5 1zm10 0c0 1.8-3.3 2.6-4.7 1.2-.6-.6-.7-1.5-.3-2.2 1-1.6 5-.8 5 1zM8.2 71.7l.3 47.8h111l.3-47.8.2-47.7H8l.2 47.7zm70.4-32.3c7.7 3.5 14.5 10.3 18.1 18 2.4 5.2 2.8 7.4 2.8 14.6 0 7.2-.4 9.4-2.8 14.6-3.6 7.7-10.4 14.5-18.2 18.1-5.1 2.4-7.3 2.8-14.5 2.8s-9.4-.4-14.5-2.8c-7.8-3.6-14.6-10.4-18.2-18.1-2.4-5.2-2.8-7.4-2.8-14.6 0-7.2.4-9.4 2.8-14.5 8.6-18.3 29.3-26.3 47.3-18.1z"/><path d="M54 41.6c-19.2 7-27.3 27.7-17.9 45.5 3.6 6.7 6.8 9.8 14.3 13.7 4.3 2.2 6.4 2.6 13.6 2.7 7.9 0 9-.3 15-3.6 23.1-12.7 22.2-45.6-1.5-56.8C71 40 60.3 39.3 54 41.6zm3.1 12.1 6.9 6.6 6.9-6.6C74.7 50 78 47 78.2 47c.2 0 2.8 2.4 5.7 5.4l5.4 5.5-6.8 7-6.8 7.1 6.6 6.9C86 82.7 89 86 89 86.2c0 .2-2.4 2.8-5.4 5.7l-5.5 5.4-7-6.8-7.1-6.8-6.9 6.6C53.3 94 50 97 49.8 97c-.2 0-2.8-2.4-5.7-5.4l-5.4-5.5 6.8-7 6.8-7.1-6.8-7.1-6.8-7 5.4-5.5c2.9-3 5.5-5.4 5.7-5.4.2 0 3.5 3 7.3 6.7z"/><path d="M47 55.5 44.6 58l6.2 6.3c3.4 3.4 6.2 6.9 6.2 7.7 0 .8-2.8 4.3-6.2 7.7L44.6 86l2.7 2.7 2.7 2.7 6.3-6.2c3.4-3.4 6.9-6.2 7.7-6.2.8 0 4.3 2.8 7.7 6.2l6.3 6.2 2.7-2.7 2.7-2.7-6.2-6.3C73.8 76.3 71 72.8 71 72c0-.8 2.8-4.3 6.2-7.7l6.2-6.3-2.7-2.7-2.7-2.7-6.3 6.2c-3.4 3.4-6.9 6.2-7.8 6.2-.8 0-4.1-2.7-7.4-6-3.3-3.3-6.2-6-6.5-6-.4 0-1.7 1.1-3 2.5z"/></svg>